                                                                        S      1
,,6HPart A,6HPart A,7Hunknown,7Hunknown,32,38,7,99,15,,1.,1,4HINCH,1,   G      1
0.08,15H20180330.183011,0.000393700787401575,10000.,10HSkinkworks,7HunknG      2
own,11,0,15H20180329.224528;                                            G      3
     186       1                                                00000000D      1
     186            -139       1       0                               0D      2
     514       2                                                00010000D      3
     514                       1       1                               0D      4
     510       3                                                00010000D      5
     510            -139       1       1                               0D      6
     510       4                                                00010000D      7
     510            -139       1       1                               0D      8
     510       5                                                00010000D      9
     510            -139       1       1                               0D     10
     510       6                                                00010000D     11
     510            -139       1       1                               0D     12
     510       7                                                00010000D     13
     510            -139       1       1                               0D     14
     510       8                                                00010000D     15
     510            -139       1       1                               0D     16
     510       9                                                00010000D     17
     510            -139       1       1                               0D     18
     510      10                                                00010000D     19
     510            -139       1       1                               0D     20
     510      11                                                00010000D     21
     510            -139       1       1                               0D     22
     510      12                                                00010000D     23
     510            -139       1       1                               0D     24
     510      13                                                00010000D     25
     510            -139       1       1                               0D     26
     510      14                                                00010000D     27
     510            -139       1       1                               0D     28
     508      15                                                00010000D     29
     508                       2       1                               0D     30
     508      17                                                00010000D     31
     508                       1       1                               0D     32
     508      18                                                00010000D     33
     508                       1       1                               0D     34
     508      19                                                00010000D     35
     508                       2       1                               0D     36
     508      21                                                00010000D     37
     508                       2       1                               0D     38
     508      23                                                00010000D     39
     508                       2       1                               0D     40
     508      25                                                00010000D     41
     508                       2       1                               0D     42
     508      27                                                00010000D     43
     508                       1       1                               0D     44
     508      28                                                00010000D     45
     508                       1       1                               0D     46
     508      29                                                00010000D     47
     508                       2       1                               0D     48
     508      31                                                00010000D     49
     508                       2       1                               0D     50
     508      33                                                00010000D     51
     508                       2       1                               0D     52
     508      35                                                00010000D     53
     508                       1       1                               0D     54
     508      36                                                00010000D     55
     508                       1       1                               0D     56
     126      37                                                00010000D     57
     126       0              10       0                               0D     58
     126      47                                                00010000D     59
     126       0               3       0                               0D     60
     126      50                                                00010000D     61
     126       0               6       0                               0D     62
     126      56                                                00010000D     63
     126       0               5       0                               0D     64
     126      61                                                00010000D     65
     126       0              10       0                               0D     66
     126      71                                                00010000D     67
     126       0               2       0                               0D     68
     126      73                                                00010000D     69
     126       0               7       0                               0D     70
     126      80                                                00010000D     71
     126       0               5       0                               0D     72
     126      85                                                00010000D     73
     126       0               3       0                               0D     74
     126      88                                                00010000D     75
     126       0               6       0                               0D     76
     126      94                                                00010000D     77
     126       0               6       0                               0D     78
     126     100                                                00010000D     79
     126       0               3       0                               0D     80
     126     103                                                00010000D     81
     126       0               6       0                               0D     82
     126     109                                                00010000D     83
     126       0               5       0                               0D     84
     126     114                                                00010000D     85
     126       0               3       0                               0D     86
     126     117                                                00010000D     87
     126       0              10       0                               0D     88
     126     127                                                00010000D     89
     126       0              10       0                               0D     90
     126     137                                                00010000D     91
     126       0               3       0                               0D     92
     126     140                                                00010000D     93
     126       0               6       0                               0D     94
     126     146                                                00010000D     95
     126       0               6       0                               0D     96
     126     152                                                00010000D     97
     126       0               3       0                               0D     98
     126     155                                                00010000D     99
     126       0               6       0                               0D    100
     126     161                                                00010000D    101
     126       0               6       0                               0D    102
     126     167                                                00010000D    103
     126       0               4       0                               0D    104
     126     171                                                00010000D    105
     126       0              10       0                               0D    106
     126     181                                                00010000D    107
     126       0               4       0                               0D    108
     128     185                                                00010000D    109
     128       0    -139      16       0                               0D    110
     128     201                                                00010000D    111
     128       0    -139       5       0                               0D    112
     128     206                                                00010000D    113
     128       0    -139      14       0                               0D    114
     128     220                                                00010000D    115
     128       0    -139      14       0                               0D    116
     128     234                                                00010000D    117
     128       0    -139      14       0                               0D    118
     128     248                                                00010000D    119
     128       0    -139      14       0                               0D    120
     128     262                                                00010000D    121
     128       0    -139       6       0                               0D    122
     128     268                                                00010000D    123
     128       0    -139      15       0                               0D    124
     128     283                                                00010000D    125
     128       0    -139      15       0                               0D    126
     128     298                                                00010000D    127
     128       0    -139      18       0                               0D    128
     128     316                                                00010000D    129
     128       0    -139       6       0                               0D    130
     128     322                                                00010000D    131
     128       0    -139      21       0                               0D    132
     502     343                                                00010000D    133
     502                       9       1                               0D    134
     504     352                                                00010001D    135
     504                       7       1                               0D    136
     406     359                                                00000000D    137
     406                       1      15                               0D    138
     314     360                                                00000200D    139
     314                       2       0                               0D    140
186,3,1,0,0,1,137;                                                     1P      1
514,12,5,1,7,1,9,1,11,1,13,1,15,1,17,1,19,1,21,1,23,1,25,1,27,1;       3P      2
510,109,1,1,29;                                                        5P      3
510,111,2,1,31,33;                                                     7P      4
510,113,1,1,35;                                                        9P      5
510,115,1,1,37;                                                       11P      6
510,117,1,1,39;                                                       13P      7
510,119,1,1,41;                                                       15P      8
510,121,2,1,43,45;                                                    17P      9
510,123,1,1,47;                                                       19P     10
510,125,1,1,49;                                                       21P     11
510,127,1,1,51;                                                       23P     12
510,129,1,1,53;                                                       25P     13
510,131,1,1,55;                                                       27P     14
508,5,0,135,1,1,0,0,135,2,1,0,0,135,3,1,0,0,135,4,1,0,0,135,2,0,      29P     15
0;                                                                    29P     16
508,1,0,135,5,0,0;                                                    31P     17
508,1,0,135,1,0,0;                                                    33P     18
508,6,0,135,3,0,0,0,135,4,0,0,0,135,6,1,0,0,135,7,1,0,0,135,8,1,      35P     19
0,0,135,6,0,0;                                                        35P     20
508,5,0,135,5,1,0,0,135,9,1,0,0,135,10,1,0,0,135,11,1,0,0,135,9,      37P     21
0,0;                                                                  37P     22
508,6,0,135,10,0,0,0,135,11,0,0,0,135,12,1,0,0,135,13,0,0,0,135,      39P     23
14,0,0,0,135,12,0,0;                                                  39P     24
508,5,0,135,13,1,0,0,135,14,1,0,0,135,15,1,0,0,135,16,1,0,0,135,      41P     25
15,0,0;                                                               41P     26
508,1,0,135,17,0,0;                                                   43P     27
508,1,0,135,16,0,0;                                                   45P     28
508,5,0,135,17,1,0,0,135,18,1,0,0,135,19,1,0,0,135,20,1,0,0,135,      47P     29
18,0,0;                                                               47P     30
508,6,0,135,19,0,0,0,135,20,0,0,0,135,21,1,0,0,135,22,0,0,0,135,      49P     31
23,0,0,0,135,21,0,0;                                                  49P     32
508,5,0,135,22,1,0,0,135,23,1,0,0,135,24,1,0,0,135,25,1,0,0,135,      51P     33
24,0,0;                                                               51P     34
508,1,0,135,25,0,0;                                                   53P     35
508,4,0,135,8,0,0,0,135,7,0,0,0,135,26,1,0,0,135,26,0,0;              55P     36
126,8,2,0,1,0,0,-3.14159265358979,-3.14159265358979,                  57P     37
-3.14159265358979,-1.5707963267949,-1.5707963267949,0.,0.,            57P     38
1.5707963267949,1.5707963267949,3.14159265358979,                     57P     39
3.14159265358979,3.14159265358979,1.,0.707106781186548,1.,            57P     40
0.707106781186548,1.,0.707106781186548,1.,0.707106781186548,1.,       57P     41
1.25,0.145,1.77573785876366D-17,1.25,0.145,0.145,1.25,                57P     42
-2.3496833665766D-17,0.145,1.25,-0.145,0.145,1.25,-0.145,0.,          57P     43
1.25,-0.145,-0.145,1.25,-2.3496833665766D-17,-0.145,1.25,0.145,       57P     44
-0.145,1.25,0.145,-1.77573785876366D-17,-3.14159265358979,            57P     45
3.14159265358979,0.,0.,0.;                                            57P     46
126,1,1,0,0,1,0,-0.104756560175786,-0.104756560175786,                59P     47
0.104756560175785,0.104756560175785,1.,1.,1.25,0.145,0.,1.23,         59P     48
0.125,0.,-0.104756560175786,0.104756560175785,0.,0.,0.;               59P     49
126,4,2,0,0,0,0,-3.14159265358979,-3.14159265358979,                  61P     50
-3.14159265358979,-1.5707963267949,-1.5707963267949,0.,0.,0.,1.,      61P     51
0.707106781186549,1.,0.707106781186548,1.,1.23,0.125,                 61P     52
-1.53080849893419D-17,1.23,0.125,-0.125,1.23,                         61P     53
-2.22721868666186D-17,-0.125,1.23,-0.125,-0.125,1.23,-0.125,0.,       61P     54
-3.14159265358979,0.,0.,0.,0.;                                        61P     55
126,4,2,0,0,0,0,0.,0.,0.,1.5707963267949,1.5707963267949,             63P     56
3.14159265358979,3.14159265358979,3.14159265358979,1.,                63P     57
0.707106781186548,1.,0.707106781186549,1.,1.23,-0.125,0.,1.23,        63P     58
-0.125,0.125,1.23,-2.22721868666186D-17,0.125,1.23,0.125,0.125,       63P     59
1.23,0.125,1.53080849893419D-17,0.,3.14159265358979,0.,0.,0.;         63P     60
126,8,2,0,1,0,0,-3.14159265358979,-3.14159265358979,                  65P     61
-3.14159265358979,-1.5707963267949,-1.5707963267949,0.,0.,            65P     62
1.5707963267949,1.5707963267949,3.14159265358979,                     65P     63
3.14159265358979,3.14159265358979,1.,0.707106781186547,1.,            65P     64
0.707106781186548,1.,0.707106781186548,1.,0.707106781186547,1.,       65P     65
1.25,0.355,-4.3474961369731D-17,1.25,0.355,-0.355,1.25,               65P     66
-2.17374806848655D-17,-0.355,1.25,-0.355,-0.355,1.25,-0.355,0.,       65P     67
1.25,-0.355,0.355,1.25,-2.17374806848655D-17,0.355,1.25,0.355,        65P     68
0.355,1.25,0.355,4.3474961369731D-17,-3.14159265358979,               65P     69
3.14159265358979,0.,0.,0.;                                            65P     70
126,1,1,0,0,1,0,-2.84,-2.84,3.,3.,1.,1.,1.23,-0.125,0.,0.5,           67P     71
-0.125,0.,-2.84,3.,0.,0.,0.;                                          67P     72
126,4,2,0,0,0,0,3.14159265358979,3.14159265358979,                    69P     73
3.14159265358979,4.71238898038469,4.71238898038469,                   69P     74
6.28318530717959,6.28318530717959,6.28318530717959,1.,                69P     75
0.707106781186548,1.,0.707106781186548,1.,0.5,-0.125,                 69P     76
-1.53080849893419D-17,0.5,-0.125,0.125,0.5,                           69P     77
-3.75802718559605D-17,0.125,0.5,0.125,0.125,0.5,0.125,                69P     78
3.06161699786838D-17,3.14159265358979,6.28318530717959,0.,0.,0.;      69P     79
126,4,2,0,0,0,0,0.,0.,0.,1.5707963267949,1.5707963267949,             71P     80
3.14159265358979,3.14159265358979,3.14159265358979,1.,                71P     81
0.707106781186548,1.,0.707106781186548,1.,0.5,0.125,0.,0.5,           71P     82
0.125,-0.125,0.5,-6.96410187727671D-18,-0.125,0.5,-0.125,-0.125,      71P     83
0.5,-0.125,-1.53080849893419D-17,0.,3.14159265358979,0.,0.,0.;        71P     84
126,1,1,0,0,1,0,-0.0387455770513179,-0.0387455770513179,              73P     85
0.0387455770513175,0.0387455770513175,1.,1.,1.25,0.355,0.,1.23,       73P     86
0.375,0.,-0.0387455770513179,0.0387455770513175,0.,0.,0.;             73P     87
126,4,2,0,0,0,0,-3.14159265358979,-3.14159265358979,                  75P     88
-3.14159265358979,-1.5707963267949,-1.5707963267949,0.,0.,0.,1.,      75P     89
0.707106781186548,1.,0.707106781186549,1.,1.23,0.375,                 75P     90
4.59242549680257D-17,1.23,0.375,0.375,1.23,                           75P     91
-2.29621274840129D-17,0.375,1.23,-0.375,0.375,1.23,-0.375,0.,         75P     92
-3.14159265358979,0.,0.,0.,0.;                                        75P     93
126,4,2,0,0,0,0,0.,0.,0.,1.5707963267949,1.5707963267949,             77P     94
3.14159265358979,3.14159265358979,3.14159265358979,1.,                77P     95
0.707106781186549,1.,0.707106781186548,1.,1.23,-0.375,0.,1.23,        77P     96
-0.375,-0.375,1.23,-2.29621274840129D-17,-0.375,1.23,0.375,           77P     97
-0.375,1.23,0.375,-4.59242549680257D-17,0.,3.14159265358979,0.,       77P     98
0.,0.;                                                                77P     99
126,1,1,0,0,1,0,-0.613333333333333,-0.613333333333333,                79P    100
0.613333333333333,0.613333333333333,1.,1.,1.23,-0.375,0.,0.77,        79P    101
-0.375,0.,-0.613333333333333,0.613333333333333,0.,0.,0.;              79P    102
126,4,2,0,0,0,0,-3.14159265358979,-3.14159265358979,                  81P    103
-3.14159265358979,-1.5707963267949,-1.5707963267949,0.,0.,0.,1.,      81P    104
0.707106781186548,1.,0.707106781186549,1.,0.77,0.375,                 81P    105
-4.59242549680257D-17,0.77,0.375,-0.375,0.77,                         81P    106
-2.29621274840129D-17,-0.375,0.77,-0.375,-0.375,0.77,-0.375,0.,       81P    107
-3.14159265358979,0.,0.,0.,0.;                                        81P    108
126,4,2,0,0,0,0,0.,0.,0.,1.5707963267949,1.5707963267949,             83P    109
3.14159265358979,3.14159265358979,3.14159265358979,1.,                83P    110
0.707106781186549,1.,0.707106781186548,1.,0.77,-0.375,0.,0.77,        83P    111
-0.375,0.375,0.77,-2.29621274840129D-17,0.375,0.77,0.375,0.375,       83P    112
0.77,0.375,4.59242549680257D-17,0.,3.14159265358979,0.,0.,0.;         83P    113
126,1,1,0,0,1,0,-0.0367328198018985,-0.0367328198018985,              85P    114
0.0367328198018987,0.0367328198018987,1.,1.,0.77,0.375,0.,0.75,       85P    115
0.395,0.,-0.0367328198018985,0.0367328198018987,0.,0.,0.;             85P    116
126,8,2,0,1,0,0,-3.14159265358979,-3.14159265358979,                  87P    117
-3.14159265358979,-1.5707963267949,-1.5707963267949,0.,0.,            87P    118
1.5707963267949,1.5707963267949,3.14159265358979,                     87P    119
3.14159265358979,3.14159265358979,1.,0.707106781186548,1.,            87P    120
0.707106781186548,1.,0.707106781186548,1.,0.707106781186548,1.,       87P    121
0.75,0.395,4.83735485663204D-17,0.75,0.395,0.395,0.75,                87P    122
-2.41867742831602D-17,0.395,0.75,-0.395,0.395,0.75,-0.395,0.,         87P    123
0.75,-0.395,-0.395,0.75,-2.41867742831602D-17,-0.395,0.75,0.395,      87P    124
-0.395,0.75,0.395,-4.83735485663204D-17,-3.14159265358979,            87P    125
3.14159265358979,0.,0.,0.;                                            87P    126
126,8,2,0,1,0,0,-3.14159265358979,-3.14159265358979,                  89P    127
-3.14159265358979,-1.5707963267949,-1.5707963267949,0.,0.,            89P    128
1.5707963267949,1.5707963267949,3.14159265358979,                     89P    129
3.14159265358979,3.14159265358979,1.,0.707106781186548,1.,            89P    130
0.707106781186548,1.,0.707106781186548,1.,0.707106781186548,1.,       89P    131
0.75,0.44875,-5.49560251117375D-17,0.75,0.44875,-0.44875,0.75,        89P    132
-2.74780125558687D-17,-0.44875,0.75,-0.44875,-0.44875,0.75,           89P    133
-0.44875,0.,0.75,-0.44875,0.44875,0.75,-2.74780125558687D-17,         89P    134
0.44875,0.75,0.44875,0.44875,0.75,0.44875,5.49560251117375D-17,       89P    135
-3.14159265358979,3.14159265358979,0.,0.,0.;                          89P    136
126,1,1,0,0,1,0,-0.030827543593964,-0.030827543593964,                91P    137
0.0308275435939638,0.0308275435939638,1.,1.,0.75,0.44875,0.,          91P    138
0.73,0.46875,0.,-0.030827543593964,0.0308275435939638,0.,0.,0.;       91P    139
126,4,2,0,0,0,0,-3.14159265358979,-3.14159265358979,                  93P    140
-3.14159265358979,-1.5707963267949,-1.5707963267949,0.,0.,0.,1.,      93P    141
0.707106781186548,1.,0.707106781186548,1.,0.73,0.46875,               93P    142
5.74053187100322D-17,0.73,0.46875,0.46875,0.73,                       93P    143
-2.87026593550161D-17,0.46875,0.73,-0.46875,0.46875,0.73,             93P    144
-0.46875,0.,-3.14159265358979,0.,0.,0.,0.;                            93P    145
126,4,2,0,0,0,0,0.,0.,0.,1.5707963267949,1.5707963267949,             95P    146
3.14159265358979,3.14159265358979,3.14159265358979,1.,                95P    147
0.707106781186548,1.,0.707106781186548,1.,0.73,-0.46875,0.,0.73,      95P    148
-0.46875,-0.46875,0.73,-2.87026593550161D-17,-0.46875,0.73,           95P    149
0.46875,-0.46875,0.73,0.46875,-5.74053187100322D-17,0.,               95P    150
3.14159265358979,0.,0.,0.;                                            95P    151
126,1,1,0,0,1,0,-0.757333333333333,-0.757333333333333,                97P    152
0.757333333333333,0.757333333333333,1.,1.,0.73,-0.46875,0.,0.02,      97P    153
-0.46875,0.,-0.757333333333333,0.757333333333333,0.,0.,0.;            97P    154
126,4,2,0,0,0,0,-3.14159265358979,-3.14159265358979,                  99P    155
-3.14159265358979,-1.5707963267949,-1.5707963267949,0.,0.,0.,1.,      99P    156
0.707106781186548,1.,0.707106781186548,1.,0.02,0.46875,               99P    157
-5.74053187100322D-17,0.02,0.46875,-0.46875,0.02,                     99P    158
-2.87026593550161D-17,-0.46875,0.02,-0.46875,-0.46875,0.02,           99P    159
-0.46875,0.,-3.14159265358979,0.,0.,0.,0.;                            99P    160
126,4,2,0,0,0,0,0.,0.,0.,1.5707963267949,1.5707963267949,            101P    161
3.14159265358979,3.14159265358979,3.14159265358979,1.,               101P    162
0.707106781186548,1.,0.707106781186548,1.,0.02,-0.46875,0.,0.02,     101P    163
-0.46875,0.46875,0.02,-2.87026593550161D-17,0.46875,0.02,            101P    164
0.46875,0.46875,0.02,0.46875,5.74053187100322D-17,0.,                101P    165
3.14159265358979,0.,0.,0.;                                           101P    166
126,1,1,0,0,1,0,-0.0308275435939638,-0.0308275435939638,             103P    167
0.030827543593964,0.030827543593964,1.,1.,0.02,0.46875,0.,           103P    168
-2.73184799366426D-17,0.44875,0.,-0.0308275435939638,                103P    169
0.030827543593964,0.,0.,0.;                                          103P    170
126,8,2,0,1,0,0,-3.14159265358979,-3.14159265358979,                 105P    171
-3.14159265358979,-1.5707963267949,-1.5707963267949,0.,0.,           105P    172
1.5707963267949,1.5707963267949,3.14159265358979,                    105P    173
3.14159265358979,3.14159265358979,1.,0.707106781186548,1.,           105P    174
0.707106781186548,1.,0.707106781186548,1.,0.707106781186548,1.,      105P    175
0.,0.44875,5.49560251117375D-17,0.,0.44875,0.44875,0.,               105P    176
-2.74780125558687D-17,0.44875,0.,-0.44875,0.44875,0.,-0.44875,       105P    177
0.,0.,-0.44875,-0.44875,0.,-2.74780125558687D-17,-0.44875,0.,        105P    178
0.44875,-0.44875,0.,0.44875,-5.49560251117375D-17,                   105P    179
-3.14159265358979,3.14159265358979,0.,0.,0.;                         105P    180
126,1,1,0,0,1,0,-1.16663339721533,-1.16663339721533,                 107P    181
1.16663339721533,1.16663339721533,1.,1.,0.5,-0.125,0.,               107P    182
0.424892422621555,-1.83088967692383D-17,0.,-1.16663339721533,        107P    183
1.16663339721533,0.,0.,0.;                                           107P    184
128,1,8,1,2,0,1,0,0,1,-0.104756560175785,-0.104756560175785,         109P    185
0.104756560175786,0.104756560175786,-3.14159265358979,               109P    186
-3.14159265358979,-3.14159265358979,-1.5707963267949,                109P    187
-1.5707963267949,0.,0.,1.5707963267949,1.5707963267949,              109P    188
3.14159265358979,3.14159265358979,3.14159265358979,1.,1.,            109P    189
0.707106781186548,0.707106781186548,1.,1.,0.707106781186548,         109P    190
0.707106781186548,1.,1.,0.707106781186548,0.707106781186548,1.,      109P    191
1.,0.707106781186548,0.707106781186548,1.,1.,1.23,0.125,0.,1.25,     109P    192
0.145,0.,1.23,0.125,0.125,1.25,0.145,0.145,1.23,                     109P    193
-1.46181443719477D-17,0.125,1.25,-1.46181443719477D-17,0.145,        109P    194
1.23,-0.125,0.125,1.25,-0.145,0.145,1.23,-0.125,0.,1.25,-0.145,      109P    195
0.,1.23,-0.125,-0.125,1.25,-0.145,-0.145,1.23,                       109P    196
-1.46181443719477D-17,-0.125,1.25,-1.46181443719477D-17,-0.145,      109P    197
1.23,0.125,-0.125,1.25,0.145,-0.145,1.23,0.125,0.,1.25,0.145,0.,     109P    198
-0.104756560175785,0.104756560175786,-3.14159265358979,              109P    199
3.14159265358979;                                                    109P    200
128,1,1,1,1,0,0,1,0,0,-0.9027,-0.9027,0.9027,0.9027,-0.9027,         111P    201
-0.9027,0.9027,0.9027,1.,1.,1.,1.,1.25,-0.355393700787402,           111P    202
0.355393700787402,1.25,-0.355393700787402,-0.355393700787402,        111P    203
1.25,0.355393700787402,0.355393700787402,1.25,0.355393700787402,     111P    204
-0.355393700787402,-0.9027,0.9027,-0.9027,0.9027;                    111P    205
128,1,8,1,2,0,1,0,0,1,-2.84,-2.84,3.,3.,-3.14159265358979,           113P    206
-3.14159265358979,-3.14159265358979,-1.5707963267949,                113P    207
-1.5707963267949,0.,0.,1.5707963267949,1.5707963267949,              113P    208
3.14159265358979,3.14159265358979,3.14159265358979,1.,1.,            113P    209
0.707106781186548,0.707106781186548,1.,1.,0.707106781186548,         113P    210
0.707106781186548,1.,1.,0.707106781186548,0.707106781186548,1.,      113P    211
1.,0.707106781186548,0.707106781186548,1.,1.,1.23,-0.125,0.,0.5,     113P    212
-0.125,0.,1.23,-0.125,0.125,0.5,-0.125,0.125,1.23,                   113P    213
-1.46181443719477D-17,0.125,0.5,-1.46181443719477D-17,0.125,         113P    214
1.23,0.125,0.125,0.5,0.125,0.125,1.23,0.125,0.,0.5,0.125,0.,         113P    215
1.23,0.125,-0.125,0.5,0.125,-0.125,1.23,-1.46181443719477D-17,       113P    216
-0.125,0.5,-1.46181443719477D-17,-0.125,1.23,-0.125,-0.125,0.5,      113P    217
-0.125,-0.125,1.23,-0.125,0.,0.5,-0.125,0.,-2.84,3.,                 113P    218
-3.14159265358979,3.14159265358979;                                  113P    219
128,1,8,1,2,0,1,0,0,1,-0.0387455770513175,-0.0387455770513175,       115P    220
0.0387455770513179,0.0387455770513179,-3.14159265358979,             115P    221
-3.14159265358979,-3.14159265358979,-1.5707963267949,                115P    222
-1.5707963267949,0.,0.,1.5707963267949,1.5707963267949,              115P    223
3.14159265358979,3.14159265358979,3.14159265358979,1.,1.,            115P    224
0.707106781186548,0.707106781186548,1.,1.,0.707106781186548,         115P    225
0.707106781186548,1.,1.,0.707106781186548,0.707106781186548,1.,      115P    226
1.,0.707106781186548,0.707106781186548,1.,1.,1.25,0.355,0.,1.23,     115P    227
0.375,0.,1.25,0.355,0.355,1.23,0.375,0.375,1.25,0.,0.355,1.23,       115P    228
0.,0.375,1.25,-0.355,0.355,1.23,-0.375,0.375,1.25,-0.355,0.,         115P    229
1.23,-0.375,0.,1.25,-0.355,-0.355,1.23,-0.375,-0.375,1.25,0.,        115P    230
-0.355,1.23,0.,-0.375,1.25,0.355,-0.355,1.23,0.375,-0.375,1.25,      115P    231
0.355,0.,1.23,0.375,0.,-0.0387455770513175,0.0387455770513179,       115P    232
-3.14159265358979,3.14159265358979;                                  115P    233
128,1,8,1,2,0,1,0,0,1,-0.613333333333333,-0.613333333333333,         117P    234
0.613333333333333,0.613333333333333,-3.14159265358979,               117P    235
-3.14159265358979,-3.14159265358979,-1.5707963267949,                117P    236
-1.5707963267949,0.,0.,1.5707963267949,1.5707963267949,              117P    237
3.14159265358979,3.14159265358979,3.14159265358979,1.,1.,            117P    238
0.707106781186548,0.707106781186548,1.,1.,0.707106781186548,         117P    239
0.707106781186548,1.,1.,0.707106781186548,0.707106781186548,1.,      117P    240
1.,0.707106781186548,0.707106781186548,1.,1.,1.23,-0.375,0.,         117P    241
0.77,-0.375,0.,1.23,-0.375,-0.375,0.77,-0.375,-0.375,1.23,0.,        117P    242
-0.375,0.77,0.,-0.375,1.23,0.375,-0.375,0.77,0.375,-0.375,1.23,      117P    243
0.375,0.,0.77,0.375,0.,1.23,0.375,0.375,0.77,0.375,0.375,1.23,       117P    244
0.,0.375,0.77,0.,0.375,1.23,-0.375,0.375,0.77,-0.375,0.375,1.23,     117P    245
-0.375,0.,0.77,-0.375,0.,-0.613333333333333,0.613333333333333,       117P    246
-3.14159265358979,3.14159265358979;                                  117P    247
128,1,8,1,2,0,1,0,0,1,-0.0367328198018987,-0.0367328198018987,       119P    248
0.0367328198018985,0.0367328198018985,-3.14159265358979,             119P    249
-3.14159265358979,-3.14159265358979,-1.5707963267949,                119P    250
-1.5707963267949,0.,0.,1.5707963267949,1.5707963267949,              119P    251
3.14159265358979,3.14159265358979,3.14159265358979,1.,1.,            119P    252
0.707106781186548,0.707106781186548,1.,1.,0.707106781186548,         119P    253
0.707106781186548,1.,1.,0.707106781186548,0.707106781186548,1.,      119P    254
1.,0.707106781186548,0.707106781186548,1.,1.,0.77,0.375,0.,0.75,     119P    255
0.395,0.,0.77,0.375,0.375,0.75,0.395,0.395,0.77,0.,0.375,0.75,       119P    256
0.,0.395,0.77,-0.375,0.375,0.75,-0.395,0.395,0.77,-0.375,0.,         119P    257
0.75,-0.395,0.,0.77,-0.375,-0.375,0.75,-0.395,-0.395,0.77,0.,        119P    258
-0.375,0.75,0.,-0.395,0.77,0.375,-0.375,0.75,0.395,-0.395,0.77,      119P    259
0.375,0.,0.75,0.395,0.,-0.0367328198018987,0.0367328198018985,       119P    260
-3.14159265358979,3.14159265358979;                                  119P    261
128,1,1,1,1,0,0,1,0,0,-1.140825,-1.140825,1.140825,1.140825,         121P    262
-2.093325,-2.093325,0.188325,0.188325,1.,1.,1.,1.,0.75,              121P    263
-0.449143700787402,0.449143700787402,0.75,-0.449143700787402,        121P    264
-0.449143700787402,0.75,0.449143700787402,0.449143700787402,         121P    265
0.75,0.449143700787402,-0.449143700787402,-1.140825,1.140825,        121P    266
-2.093325,0.188325;                                                  121P    267
128,1,8,1,2,0,1,0,0,1,-0.0308275435939638,-0.0308275435939638,       123P    268
0.030827543593964,0.030827543593964,-3.14159265358979,               123P    269
-3.14159265358979,-3.14159265358979,-1.5707963267949,                123P    270
-1.5707963267949,0.,0.,1.5707963267949,1.5707963267949,              123P    271
3.14159265358979,3.14159265358979,3.14159265358979,1.,1.,            123P    272
0.707106781186548,0.707106781186548,1.,1.,0.707106781186548,         123P    273
0.707106781186548,1.,1.,0.707106781186548,0.707106781186548,1.,      123P    274
1.,0.707106781186548,0.707106781186548,1.,1.,0.75,0.44875,0.,        123P    275
0.73,0.46875,0.,0.75,0.44875,0.44875,0.73,0.46875,0.46875,0.75,      123P    276
0.,0.44875,0.73,0.,0.46875,0.75,-0.44875,0.44875,0.73,-0.46875,      123P    277
0.46875,0.75,-0.44875,0.,0.73,-0.46875,0.,0.75,-0.44875,             123P    278
-0.44875,0.73,-0.46875,-0.46875,0.75,0.,-0.44875,0.73,0.,            123P    279
-0.46875,0.75,0.44875,-0.44875,0.73,0.46875,-0.46875,0.75,           123P    280
0.44875,0.,0.73,0.46875,0.,-0.0308275435939638,                      123P    281
0.030827543593964,-3.14159265358979,3.14159265358979;                123P    282
128,1,8,1,2,0,1,0,0,1,-0.757333333333333,-0.757333333333333,         125P    283
0.757333333333333,0.757333333333333,-3.14159265358979,               125P    284
-3.14159265358979,-3.14159265358979,-1.5707963267949,                125P    285
-1.5707963267949,0.,0.,1.5707963267949,1.5707963267949,              125P    286
3.14159265358979,3.14159265358979,3.14159265358979,1.,1.,            125P    287
0.707106781186548,0.707106781186548,1.,1.,0.707106781186548,         125P    288
0.707106781186548,1.,1.,0.707106781186548,0.707106781186548,1.,      125P    289
1.,0.707106781186548,0.707106781186548,1.,1.,0.73,-0.46875,0.,       125P    290
0.02,-0.46875,0.,0.73,-0.46875,-0.46875,0.02,-0.46875,-0.46875,      125P    291
0.73,0.,-0.46875,0.02,0.,-0.46875,0.73,0.46875,-0.46875,0.02,        125P    292
0.46875,-0.46875,0.73,0.46875,0.,0.02,0.46875,0.,0.73,0.46875,       125P    293
0.46875,0.02,0.46875,0.46875,0.73,0.,0.46875,0.02,0.,0.46875,        125P    294
0.73,-0.46875,0.46875,0.02,-0.46875,0.46875,0.73,-0.46875,0.,        125P    295
0.02,-0.46875,0.,-0.757333333333333,0.757333333333333,               125P    296
-3.14159265358979,3.14159265358979;                                  125P    297
128,1,8,1,2,0,1,0,0,1,-0.030827543593964,-0.030827543593964,         127P    298
0.0308275435939638,0.0308275435939638,-3.14159265358979,             127P    299
-3.14159265358979,-3.14159265358979,-1.5707963267949,                127P    300
-1.5707963267949,0.,0.,1.5707963267949,1.5707963267949,              127P    301
3.14159265358979,3.14159265358979,3.14159265358979,1.,1.,            127P    302
0.707106781186548,0.707106781186548,1.,1.,0.707106781186548,         127P    303
0.707106781186548,1.,1.,0.707106781186548,0.707106781186548,1.,      127P    304
1.,0.707106781186548,0.707106781186548,1.,1.,0.02,0.46875,0.,        127P    305
-2.73184799366426D-17,0.44875,0.,0.02,0.46875,0.46875,               127P    306
-2.73184799366426D-17,0.44875,0.44875,0.02,0.,0.46875,               127P    307
-2.73184799366426D-17,0.,0.44875,0.02,-0.46875,0.46875,              127P    308
-2.73184799366426D-17,-0.44875,0.44875,0.02,-0.46875,0.,             127P    309
-2.73184799366426D-17,-0.44875,0.,0.02,-0.46875,-0.46875,            127P    310
-2.73184799366426D-17,-0.44875,-0.44875,0.02,0.,-0.46875,            127P    311
-2.73184799366426D-17,0.,-0.44875,0.02,0.46875,-0.46875,             127P    312
-2.73184799366426D-17,0.44875,-0.44875,0.02,0.46875,0.,              127P    313
-2.73184799366426D-17,0.44875,0.,-0.030827543593964,                 127P    314
0.0308275435939638,-3.14159265358979,3.14159265358979;               127P    315
128,1,1,1,1,0,0,1,0,0,-1.140825,-1.140825,1.140825,1.140825,         129P    316
-2.33145,-2.33145,-0.0497999999999997,-0.0497999999999997,1.,1.,     129P    317
1.,1.,0.,-0.449143700787402,-0.449143700787402,0.,                   129P    318
-0.449143700787402,0.449143700787402,0.,0.449143700787402,           129P    319
-0.449143700787402,0.,0.449143700787402,0.449143700787402,           129P    320
-1.140825,1.140825,-2.33145,-0.0497999999999997;                     129P    321
128,1,8,1,2,0,1,0,0,1,-1.16663339721533,-1.16663339721533,           131P    322
1.16663339721533,1.16663339721533,-3.14159265358979,                 131P    323
-3.14159265358979,-3.14159265358979,-1.5707963267949,                131P    324
-1.5707963267949,0.,0.,1.5707963267949,1.5707963267949,              131P    325
3.14159265358979,3.14159265358979,3.14159265358979,1.,1.,            131P    326
0.707106781186548,0.707106781186548,1.,1.,0.707106781186548,         131P    327
0.707106781186548,1.,1.,0.707106781186548,0.707106781186548,1.,      131P    328
1.,0.707106781186548,0.707106781186548,1.,1.,0.5,-0.125,0.,          131P    329
0.424892422621555,-1.83088967692383D-17,0.,0.5,-0.125,0.125,         131P    330
0.424892422621555,-1.83088967692383D-17,3.69075239729061D-18,        131P    331
0.5,-1.46181443719477D-17,0.125,0.424892422621555,                   131P    332
-1.46181443719477D-17,3.69075239729061D-18,0.5,0.125,0.125,          131P    333
0.424892422621555,-1.09273919746571D-17,3.69075239729061D-18,        131P    334
0.5,0.125,0.,0.424892422621555,-1.09273919746571D-17,0.,0.5,         131P    335
0.125,-0.125,0.424892422621555,-1.09273919746571D-17,                131P    336
-3.69075239729061D-18,0.5,-1.46181443719477D-17,-0.125,              131P    337
0.424892422621555,-1.46181443719477D-17,-3.69075239729061D-18,       131P    338
0.5,-0.125,-0.125,0.424892422621555,-1.83088967692383D-17,           131P    339
-3.69075239729061D-18,0.5,-0.125,0.,0.424892422621555,               131P    340
-1.83088967692383D-17,0.,-1.16663339721533,1.16663339721533,         131P    341
-3.14159265358979,3.14159265358979;                                  131P    342
502,18,1.25,0.145,1.77573785876366D-17,1.23,0.125,                   133P    343
-1.53080849893419D-17,1.23,-0.125,0.,1.25,0.355,                     133P    344
-4.3474961369731D-17,0.5,-0.125,0.,0.5,0.125,0.,1.23,0.375,          133P    345
4.59242549680257D-17,1.23,-0.375,0.,0.77,-0.375,0.,0.77,0.375,       133P    346
-4.59242549680257D-17,0.75,0.395,4.83735485663204D-17,0.75,          133P    347
0.44875,-5.49560251117375D-17,0.73,0.46875,5.74053187100322D-17,     133P    348
0.73,-0.46875,0.,0.02,-0.46875,0.,0.02,0.46875,                      133P    349
-5.74053187100322D-17,0.,0.44875,5.49560251117375D-17,               133P    350
0.424892422621555,-1.46181443719477D-17,0.;                          133P    351
504,26,57,133,1,133,1,59,133,1,133,2,61,133,2,133,3,63,133,3,        135P    352
133,2,65,133,4,133,4,67,133,3,133,5,69,133,5,133,6,71,133,6,133,     135P    353
5,73,133,4,133,7,75,133,7,133,8,77,133,8,133,7,79,133,8,133,9,       135P    354
81,133,10,133,9,83,133,9,133,10,85,133,10,133,11,87,133,11,133,      135P    355
11,89,133,12,133,12,91,133,12,133,13,93,133,13,133,14,95,133,14,     135P    356
133,13,97,133,14,133,15,99,133,16,133,15,101,133,15,133,16,103,      135P    357
133,16,133,17,105,133,17,133,17,107,133,5,133,18;                    135P    358
406,1,5HBody1;                                                       137P    359
314,62.7450980392157,62.7450980392157,62.7450980392157,13HSteel      139P    360
- Satin;                                                             139P    361
S      1G      3D    140P    361                                        T      1
