                                                                        S      1
,,6HPart B,6HPart B,7Hunknown,7Hunknown,32,38,7,99,15,,1.,1,4HINCH,1,   G      1
0.08,15H20180330.183019,0.000393700787401575,10000.,10HSkinkworks,7HunknG      2
own,11,0,15H20180329.224938;                                            G      3
     186       1                                                00000000D      1
     186            -137       1       0                               0D      2
     514       2                                                00010000D      3
     514                       1       1                               0D      4
     510       3                                                00010000D      5
     510            -137       1       1                               0D      6
     510       4                                                00010000D      7
     510            -137       1       1                               0D      8
     510       5                                                00010000D      9
     510            -137       1       1                               0D     10
     510       6                                                00010000D     11
     510            -137       1       1                               0D     12
     510       7                                                00010000D     13
     510            -137       1       1                               0D     14
     510       8                                                00010000D     15
     510            -137       1       1                               0D     16
     510       9                                                00010000D     17
     510            -137       1       1                               0D     18
     510      10                                                00010000D     19
     510            -137       1       1                               0D     20
     510      11                                                00010000D     21
     510            -137       1       1                               0D     22
     510      12                                                00010000D     23
     510            -137       1       1                               0D     24
     510      13                                                00010000D     25
     510            -137       1       1                               0D     26
     510      14                                                00010000D     27
     510            -137       1       1                               0D     28
     508      15                                                00010000D     29
     508                       2       1                               0D     30
     508      17                                                00010000D     31
     508                       2       1                               0D     32
     508      19                                                00010000D     33
     508                       1       1                               0D     34
     508      20                                                00010000D     35
     508                       2       1                               0D     36
     508      22                                                00010000D     37
     508                       1       1                               0D     38
     508      23                                                00010000D     39
     508                       1       1                               0D     40
     508      24                                                00010000D     41
     508                       2       1                               0D     42
     508      26                                                00010000D     43
     508                       1       1                               0D     44
     508      27                                                00010000D     45
     508                       1       1                               0D     46
     508      28                                                00010000D     47
     508                       2       1                               0D     48
     508      30                                                00010000D     49
     508                       2       1                               0D     50
     508      32                                                00010000D     51
     508                       2       1                               0D     52
     508      34                                                00010000D     53
     508                       2       1                               0D     54
     508      36                                                00010000D     55
     508                       1       1                               0D     56
     126      37                                                00010000D     57
     126       0               6       0                               0D     58
     126      43                                                00010000D     59
     126       0               5       0                               0D     60
     126      48                                                00010000D     61
     126       0               3       0                               0D     62
     126      51                                                00010000D     63
     126       0              10       0                               0D     64
     126      61                                                00010000D     65
     126       0               6       0                               0D     66
     126      67                                                00010000D     67
     126       0               5       0                               0D     68
     126      72                                                00010000D     69
     126       0               3       0                               0D     70
     126      75                                                00010000D     71
     126       0              10       0                               0D     72
     126      85                                                00010000D     73
     126       0               3       0                               0D     74
     126      88                                                00010000D     75
     126       0               7       0                               0D     76
     126      95                                                00010000D     77
     126       0               9       0                               0D     78
     126     104                                                00010000D     79
     126       0              10       0                               0D     80
     126     114                                                00010000D     81
     126       0               5       0                               0D     82
     126     119                                                00010000D     83
     126       0              10       0                               0D     84
     126     129                                                00010000D     85
     126       0              10       0                               0D     86
     126     139                                                00010000D     87
     126       0              10       0                               0D     88
     126     149                                                00010000D     89
     126       0               4       0                               0D     90
     126     153                                                00010000D     91
     126       0               6       0                               0D     92
     126     159                                                00010000D     93
     126       0               6       0                               0D     94
     126     165                                                00010000D     95
     126       0               4       0                               0D     96
     126     169                                                00010000D     97
     126       0               6       0                               0D     98
     126     175                                                00010000D     99
     126       0               6       0                               0D    100
     126     181                                                00010000D    101
     126       0               2       0                               0D    102
     126     183                                                00010000D    103
     126       0              10       0                               0D    104
     126     193                                                00010000D    105
     126       0               3       0                               0D    106
     128     196                                                00010000D    107
     128       0    -137      14       0                               0D    108
     128     210                                                00010000D    109
     128       0    -137      14       0                               0D    110
     128     224                                                00010000D    111
     128       0    -137       5       0                               0D    112
     128     229                                                00010000D    113
     128       0    -137      13       0                               0D    114
     128     242                                                00010000D    115
     128       0    -137       6       0                               0D    116
     128     248                                                00010000D    117
     128       0    -137      26       0                               0D    118
     128     274                                                00010000D    119
     128       0    -137       5       0                               0D    120
     128     279                                                00010000D    121
     128       0    -137      22       0                               0D    122
     128     301                                                00010000D    123
     128       0    -137      18       0                               0D    124
     128     319                                                00010000D    125
     128       0    -137      13       0                               0D    126
     128     332                                                00010000D    127
     128       0    -137      15       0                               0D    128
     128     347                                                00010000D    129
     128       0    -137       6       0                               0D    130
     502     353                                                00010000D    131
     502                       9       1                               0D    132
     504     362                                                00010001D    133
     504                       7       1                               0D    134
     406     369                                                00000000D    135
     406                       1      15                               0D    136
     314     370                                                00000200D    137
     314                       2       0                               0D    138
186,3,1,0,0,1,135;                                                     1P      1
514,12,5,1,7,1,9,1,11,1,13,1,15,1,17,1,19,1,21,1,23,1,25,1,27,1;       3P      2
510,107,1,1,29;                                                        5P      3
510,109,1,1,31;                                                        7P      4
510,111,1,1,33;                                                        9P      5
510,113,1,1,35;                                                       11P      6
510,115,2,1,37,39;                                                    13P      7
510,117,1,1,41;                                                       15P      8
510,119,2,1,43,45;                                                    17P      9
510,121,1,1,47;                                                       19P     10
510,123,1,1,49;                                                       21P     11
510,125,1,1,51;                                                       23P     12
510,127,1,1,53;                                                       25P     13
510,129,1,1,55;                                                       27P     14
508,5,0,133,1,1,0,0,133,2,1,0,0,133,3,1,0,0,133,4,1,0,0,133,3,0,      29P     15
0;                                                                    29P     16
508,6,0,133,5,0,0,0,133,6,0,0,0,133,7,1,0,0,133,1,0,0,0,133,2,0,      31P     17
0,0,133,7,0,0;                                                        31P     18
508,1,0,133,4,0,0;                                                    33P     19
508,5,0,133,8,1,0,0,133,9,1,0,0,133,5,1,0,0,133,6,1,0,0,133,9,0,      35P     20
0;                                                                    35P     21
508,1,0,133,8,0,0;                                                    37P     22
508,2,0,133,10,0,0,0,133,11,0,0;                                      39P     23
508,5,0,133,12,1,0,0,133,13,1,0,0,133,14,1,0,0,133,15,1,0,0,133,      41P     24
13,0,0;                                                               41P     25
508,1,0,133,12,0,0;                                                   43P     26
508,1,0,133,16,0,0;                                                   45P     27
508,6,0,133,14,0,0,0,133,15,0,0,0,133,17,1,0,0,133,11,1,0,0,133,      47P     28
10,1,0,0,133,17,0,0;                                                  47P     29
508,5,0,133,18,1,0,0,133,19,1,0,0,133,20,1,0,0,133,16,1,0,0,133,      49P     30
20,0,0;                                                               49P     31
508,6,0,133,21,0,0,0,133,22,0,0,0,133,23,1,0,0,133,18,0,0,0,133,      51P     32
19,0,0,0,133,23,0,0;                                                  51P     33
508,5,0,133,24,1,0,0,133,25,1,0,0,133,21,1,0,0,133,22,1,0,0,133,      53P     34
25,0,0;                                                               53P     35
508,1,0,133,24,0,0;                                                   55P     36
126,4,2,0,0,0,0,-3.14159265358979,-3.14159265358979,                  57P     37
-3.14159265358979,-1.5707963267949,-1.5707963267949,0.,0.,0.,1.,      57P     38
0.707106781186548,1.,0.707106781186548,1.,1.48,                       57P     39
-5.75583995599256D-17,0.47,1.48,-0.47,0.47,1.48,-0.47,                57P     40
-2.87791997799628D-17,1.48,-0.47,-0.47,1.48,0.,-0.47,                 57P     41
-3.14159265358979,0.,0.,0.,0.;                                        57P     42
126,4,2,0,0,0,0,0.,0.,0.,1.5707963267949,1.5707963267949,             59P     43
3.14159265358979,3.14159265358979,3.14159265358979,1.,                59P     44
0.707106781186548,1.,0.707106781186548,1.,1.48,0.,-0.47,1.48,         59P     45
0.47,-0.47,1.48,0.47,-2.87791997799628D-17,1.48,0.47,0.47,1.48,       59P     46
5.75583995599256D-17,0.47,0.,3.14159265358979,0.,0.,0.;               59P     47
126,1,1,0,0,1,0,-0.0307437730950674,-0.0307437730950674,              61P     48
0.0307437730950673,0.0307437730950673,1.,1.,1.48,0.,0.47,1.5,0.,      61P     49
0.45,-0.0307437730950674,0.0307437730950673,0.,0.,0.;                 61P     50
126,8,2,0,1,0,0,-3.14159265358979,-3.14159265358979,                  63P     51
-3.14159265358979,-1.5707963267949,-1.5707963267949,0.,0.,            63P     52
1.5707963267949,1.5707963267949,3.14159265358979,                     63P     53
3.14159265358979,3.14159265358979,1.,0.707106781186548,1.,            63P     54
0.707106781186548,1.,0.707106781186548,1.,0.707106781186548,1.,       63P     55
1.5,5.51091059616309D-17,0.45,1.5,0.45,0.45,1.5,0.45,                 63P     56
-2.75545529808154D-17,1.5,0.45,-0.45,1.5,0.,-0.45,1.5,-0.45,          63P     57
-0.45,1.5,-0.45,-2.75545529808154D-17,1.5,-0.45,0.45,1.5,             63P     58
-5.51091059616309D-17,0.45,-3.14159265358979,3.14159265358979,        63P     59
0.,0.,0.;                                                             63P     60
126,4,2,0,0,0,0,-3.14159265358979,-3.14159265358979,                  65P     61
-3.14159265358979,-1.5707963267949,-1.5707963267949,0.,0.,0.,1.,      65P     62
0.707106781186548,1.,0.707106781186548,1.,1.02,                       65P     63
5.75583995599256D-17,0.47,1.02,0.47,0.47,1.02,0.47,                   65P     64
-2.87791997799628D-17,1.02,0.47,-0.47,1.02,0.,-0.47,                  65P     65
-3.14159265358979,0.,0.,0.,0.;                                        65P     66
126,4,2,0,0,0,0,0.,0.,0.,1.5707963267949,1.5707963267949,             67P     67
3.14159265358979,3.14159265358979,3.14159265358979,1.,                67P     68
0.707106781186548,1.,0.707106781186548,1.,1.02,0.,-0.47,1.02,         67P     69
-0.47,-0.47,1.02,-0.47,-2.87791997799628D-17,1.02,-0.47,0.47,         67P     70
1.02,-5.75583995599256D-17,0.47,0.,3.14159265358979,0.,0.,0.;         67P     71
126,1,1,0,0,1,0,-0.489361702127659,-0.489361702127659,                69P     72
0.48936170212766,0.48936170212766,1.,1.,1.02,0.,-0.47,1.48,0.,        69P     73
-0.47,-0.489361702127659,0.48936170212766,0.,0.,0.;                   69P     74
126,8,2,0,1,0,0,-3.14159265358979,-3.14159265358979,                  71P     75
-3.14159265358979,-1.5707963267949,-1.5707963267949,0.,0.,            71P     76
1.5707963267949,1.5707963267949,3.14159265358979,                     71P     77
3.14159265358979,3.14159265358979,1.,0.707106781186548,1.,            71P     78
0.707106781186548,1.,0.707106781186548,1.,0.707106781186548,1.,       71P     79
1.,-5.51091059616309D-17,0.45,1.,-0.45,0.45,1.,-0.45,                 71P     80
-2.75545529808154D-17,1.,-0.45,-0.45,1.,0.,-0.45,1.,0.45,-0.45,       71P     81
1.,0.45,-2.75545529808154D-17,1.,0.45,0.45,1.,                        71P     82
5.51091059616309D-17,0.45,-3.14159265358979,3.14159265358979,0.,      71P     83
0.,0.;                                                                71P     84
126,1,1,0,0,1,0,-0.0307437730950675,-0.0307437730950675,              73P     85
0.0307437730950671,0.0307437730950671,1.,1.,1.,0.,0.45,1.02,0.,       73P     86
0.47,-0.0307437730950675,0.0307437730950671,0.,0.,0.;                 73P     87
126,4,2,0,0,0,0,0.,0.,0.,1.5707963267949,1.5707963267949,             75P     88
3.14159265358979,3.14159265358979,3.14159265358979,1.,                75P     89
0.707106781186548,1.,0.707106781186548,1.,1.,0.,                      75P     90
0.429920769491748,1.,0.429920769491748,0.429920769491748,1.,          75P     91
0.429920769491748,2.63250547122518D-17,1.,0.429920769491748,          75P     92
-0.429920769491748,1.,5.26501094245036D-17,-0.429920769491748,        75P     93
0.,3.14159265358979,0.,0.,0.;                                         75P     94
126,4,2,0,0,0,0,3.14159265358979,3.14159265358979,                    77P     95
3.14159265358979,4.71238898038469,4.71238898038469,                   77P     96
6.28318530717959,6.28318530717959,6.28318530717959,1.,                77P     97
0.707106781186548,1.,0.707106781186547,1.,1.,                         77P     98
5.26501094245036D-17,-0.429920769491748,1.,-0.429920769491748,        77P     99
-0.429920769491748,1.,-0.429920769491748,-7.89751641367554D-17,       77P    100
1.,-0.429920769491748,0.429920769491748,1.,                           77P    101
-1.05300218849007D-16,0.429920769491748,3.14159265358979,             77P    102
6.28318530717959,0.,0.,0.;                                            77P    103
126,8,2,0,1,0,0,-3.14159265358979,-3.14159265358979,                  79P    104
-3.14159265358979,-1.5707963267949,-1.5707963267949,0.,0.,            79P    105
1.5707963267949,1.5707963267949,3.14159265358979,                     79P    106
3.14159265358979,3.14159265358979,1.,0.707106781186547,1.,            79P    107
0.707106781186548,1.,0.707106781186548,1.,0.707106781186547,1.,       79P    108
0.,-4.59242549680257D-17,0.375,0.,-0.375,0.375,0.,-0.375,             79P    109
-2.29621274840129D-17,0.,-0.375,-0.375,0.,0.,-0.375,0.,0.375,         79P    110
-0.375,0.,0.375,-2.29621274840129D-17,0.,0.375,0.375,0.,              79P    111
4.59242549680257D-17,0.375,-3.14159265358979,3.14159265358979,        79P    112
0.,0.,0.;                                                             79P    113
126,1,1,0,0,1,0,-0.0373344583602833,-0.0373344583602833,              81P    114
0.0373344583602832,0.0373344583602832,1.,1.,                          81P    115
-2.37670775448791D-16,1.17894010477581D-17,0.375,                     81P    116
0.0199878165403823,-1.1789401047758D-17,0.39569798993405,             81P    117
-0.0373344583602833,0.0373344583602832,0.,0.,0.;                      81P    118
126,4,2,0,0,0,0,-3.14159265358979,-3.14159265358979,                  83P    119
-3.14159265358979,-1.5707963267949,-1.5707963267949,                  83P    120
-1.22464679914735D-16,-1.22464679914735D-16,                          83P    121
-1.22464679914735D-16,1.,0.707106781186547,1.,0.707106781186547,      83P    122
1.,0.0199878165403821,4.84590276801776D-17,0.39569798993405,          83P    123
0.0199878165403821,0.39569798993405,0.39569798993405,                 83P    124
0.0199878165403821,0.39569798993405,-4.84590276801776D-17,            83P    125
0.0199878165403821,0.39569798993405,-0.39569798993405,                83P    126
0.0199878165403821,9.70547373549473D-33,-0.39569798993405,            83P    127
-3.14159265358979,-1.22464679914735D-16,0.,0.,0.;                     83P    128
126,4,2,0,0,0,0,-1.22464679914735D-16,-1.22464679914735D-16,          85P    129
-1.22464679914735D-16,1.5707963267949,1.5707963267949,                85P    130
3.14159265358979,3.14159265358979,3.14159265358979,1.,                85P    131
0.707106781186548,1.,0.707106781186548,1.,0.0199878165403821,         85P    132
9.70547373549473D-33,-0.39569798993405,0.0199878165403821,            85P    133
-0.39569798993405,-0.39569798993405,0.0199878165403821,               85P    134
-0.39569798993405,0.,0.0199878165403821,-0.39569798993405,            85P    135
0.39569798993405,0.0199878165403821,-4.84590276801776D-17,            85P    136
0.39569798993405,-1.22464679914735D-16,3.14159265358979,0.,0.,        85P    137
0.;                                                                   85P    138
126,8,2,0,1,0,0,-3.14159265358979,-3.14159265358979,                  87P    139
-3.14159265358979,-1.5707963267949,-1.5707963267949,0.,0.,            87P    140
1.5707963267949,1.5707963267949,3.14159265358979,                     87P    141
3.14159265358979,3.14159265358979,1.,0.707106781186548,1.,            87P    142
0.707106781186548,1.,0.707106781186548,1.,0.707106781186548,1.,       87P    143
0.,1.77573785876366D-17,0.145,0.,0.145,0.145,0.,0.145,                87P    144
-8.87868929381831D-18,0.,0.145,-0.145,0.,0.,-0.145,0.,-0.145,         87P    145
-0.145,0.,-0.145,-8.87868929381831D-18,0.,-0.145,0.145,0.,            87P    146
-1.77573785876366D-17,0.145,-3.14159265358979,3.14159265358979,       87P    147
0.,0.,0.;                                                             87P    148
126,1,1,0,0,1,0,-1.16448703902882,-1.16448703902882,                  89P    149
1.2129765442993,1.2129765442993,1.,1.,0.0199878165403819,0.,          89P    150
-0.39569798993405,1.,0.,-0.429920769491748,-1.16448703902882,         89P    151
1.2129765442993,0.,0.,0.;                                             89P    152
126,4,2,0,0,0,0,-3.14159265358979,-3.14159265358979,                  91P    153
-3.14159265358979,-1.5707963267949,-1.5707963267949,0.,0.,0.,1.,      91P    154
0.707106781186548,1.,0.707106781186548,1.,-0.02,                      91P    155
-1.53080849893419D-17,0.125,-0.02,-0.125,0.125,-0.02,-0.125,          91P    156
-7.65404249467096D-18,-0.02,-0.125,-0.125,-0.02,0.,-0.125,            91P    157
-3.14159265358979,0.,0.,0.,0.;                                        91P    158
126,4,2,0,0,0,0,0.,0.,0.,1.5707963267949,1.5707963267949,             93P    159
3.14159265358979,3.14159265358979,3.14159265358979,1.,                93P    160
0.707106781186548,1.,0.707106781186548,1.,-0.02,0.,-0.125,-0.02,      93P    161
0.125,-0.125,-0.02,0.125,-7.65404249467096D-18,-0.02,0.125,           93P    162
0.125,-0.02,1.53080849893419D-17,0.125,0.,3.14159265358979,0.,        93P    163
0.,0.;                                                                93P    164
126,1,1,0,0,1,0,-0.104756560175785,-0.104756560175785,                95P    165
0.104756560175785,0.104756560175785,1.,1.,-0.02,0.,0.125,             95P    166
6.82961998416066D-18,0.,0.145,-0.104756560175785,                     95P    167
0.104756560175785,0.,0.,0.;                                           95P    168
126,4,2,0,0,0,0,-3.14159265358979,-3.14159265358979,                  97P    169
-3.14159265358979,-1.5707963267949,-1.5707963267949,0.,0.,0.,1.,      97P    170
0.707106781186548,1.,0.707106781186548,1.,-0.355,                     97P    171
1.53080849893419D-17,0.125,-0.355,0.125,0.125,-0.355,0.125,           97P    172
-7.65404249467096D-18,-0.355,0.125,-0.125,-0.355,0.,-0.125,           97P    173
-3.14159265358979,0.,0.,0.,0.;                                        97P    174
126,4,2,0,0,0,0,0.,0.,0.,1.5707963267949,1.5707963267949,             99P    175
3.14159265358979,3.14159265358979,3.14159265358979,1.,                99P    176
0.707106781186548,1.,0.707106781186548,1.,-0.355,0.,-0.125,           99P    177
-0.355,-0.125,-0.125,-0.355,-0.125,-7.65404249467096D-18,-0.355,      99P    178
-0.125,0.125,-0.355,-1.53080849893419D-17,0.125,0.,                   99P    179
3.14159265358979,0.,0.,0.;                                            99P    180
126,1,1,0,0,1,0,-1.34,-1.34,1.34,1.34,1.,1.,-0.355,0.,-0.125,        101P    181
-0.02,0.,-0.125,-1.34,1.34,0.,0.,0.;                                 101P    182
126,8,2,0,1,0,0,-3.14159265358979,-3.14159265358979,                 103P    183
-3.14159265358979,-1.5707963267949,-1.5707963267949,0.,0.,           103P    184
1.5707963267949,1.5707963267949,3.14159265358979,                    103P    185
3.14159265358979,3.14159265358979,1.,0.707106781186547,1.,           103P    186
0.707106781186548,1.,0.707106781186548,1.,0.707106781186547,1.,      103P    187
-0.375,-1.28587913910472D-17,0.105,-0.375,-0.105,0.105,-0.375,       103P    188
-0.105,-6.4293956955236D-18,-0.375,-0.105,-0.105,-0.375,0.,          103P    189
-0.105,-0.375,0.105,-0.105,-0.375,0.105,-6.4293956955236D-18,        103P    190
-0.375,0.105,0.105,-0.375,1.28587913910472D-17,0.105,                103P    191
-3.14159265358979,3.14159265358979,0.,0.,0.;                         103P    192
126,1,1,0,0,1,0,-0.122975092380269,-0.122975092380269,               105P    193
0.122975092380269,0.122975092380269,1.,1.,-0.375,0.,0.105,           105P    194
-0.355,0.,0.125,-0.122975092380269,0.122975092380269,0.,0.,0.;       105P    195
128,1,8,1,2,0,1,0,0,1,-0.0307437730950673,-0.0307437730950673,       107P    196
0.0307437730950674,0.0307437730950674,-3.14159265358979,             107P    197
-3.14159265358979,-3.14159265358979,-1.5707963267949,                107P    198
-1.5707963267949,0.,0.,1.5707963267949,1.5707963267949,              107P    199
3.14159265358979,3.14159265358979,3.14159265358979,1.,1.,            107P    200
0.707106781186548,0.707106781186548,1.,1.,0.707106781186548,         107P    201
0.707106781186548,1.,1.,0.707106781186548,0.707106781186548,1.,      107P    202
1.,0.707106781186548,0.707106781186548,1.,1.,1.48,0.,0.47,1.5,       107P    203
0.,0.45,1.48,0.47,0.47,1.5,0.45,0.45,1.48,0.47,0.,1.5,0.45,0.,       107P    204
1.48,0.47,-0.47,1.5,0.45,-0.45,1.48,0.,-0.47,1.5,0.,-0.45,1.48,      107P    205
-0.47,-0.47,1.5,-0.45,-0.45,1.48,-0.47,0.,1.5,-0.45,0.,1.48,         107P    206
-0.47,0.47,1.5,-0.45,0.45,1.48,0.,0.47,1.5,0.,0.45,                  107P    207
-0.0307437730950673,0.0307437730950674,-3.14159265358979,            107P    208
3.14159265358979;                                                    107P    209
128,1,8,1,2,0,1,0,0,1,-0.48936170212766,-0.48936170212766,           109P    210
0.489361702127659,0.489361702127659,-3.14159265358979,               109P    211
-3.14159265358979,-3.14159265358979,-1.5707963267949,                109P    212
-1.5707963267949,0.,0.,1.5707963267949,1.5707963267949,              109P    213
3.14159265358979,3.14159265358979,3.14159265358979,1.,1.,            109P    214
0.707106781186548,0.707106781186548,1.,1.,0.707106781186548,         109P    215
0.707106781186548,1.,1.,0.707106781186548,0.707106781186548,1.,      109P    216
1.,0.707106781186548,0.707106781186548,1.,1.,1.02,0.,-0.47,1.48,     109P    217
0.,-0.47,1.02,-0.47,-0.47,1.48,-0.47,-0.47,1.02,-0.47,0.,1.48,       109P    218
-0.47,0.,1.02,-0.47,0.47,1.48,-0.47,0.47,1.02,0.,0.47,1.48,0.,       109P    219
0.47,1.02,0.47,0.47,1.48,0.47,0.47,1.02,0.47,0.,1.48,0.47,0.,        109P    220
1.02,0.47,-0.47,1.48,0.47,-0.47,1.02,0.,-0.47,1.48,0.,-0.47,         109P    221
-0.48936170212766,0.489361702127659,-3.14159265358979,               109P    222
3.14159265358979;                                                    109P    223
128,1,1,1,1,0,0,1,0,0,0.0498,0.0498,2.3378,2.3378,-1.144,-1.144,     111P    224
1.144,1.144,1.,1.,1.,1.,1.5,-0.450393700787401,                      111P    225
0.450393700787402,1.5,-0.450393700787401,-0.450393700787402,1.5,     111P    226
0.450393700787401,0.450393700787402,1.5,0.450393700787401,           111P    227
-0.450393700787402,0.0498,2.3378,-1.144,1.144;                       111P    228
128,1,8,1,2,0,1,0,0,1,-0.0307437730950671,-0.0307437730950671,       113P    229
0.0307437730950675,0.0307437730950675,-3.14159265358979,             113P    230
-3.14159265358979,-3.14159265358979,-1.5707963267949,                113P    231
-1.5707963267949,0.,0.,1.5707963267949,1.5707963267949,              113P    232
3.14159265358979,3.14159265358979,3.14159265358979,1.,1.,            113P    233
0.707106781186548,0.707106781186548,1.,1.,0.707106781186548,         113P    234
0.707106781186548,1.,1.,0.707106781186548,0.707106781186548,1.,      113P    235
1.,0.707106781186548,0.707106781186548,1.,1.,1.,0.,0.45,1.02,0.,     113P    236
0.47,1.,0.45,0.45,1.02,0.47,0.47,1.,0.45,0.,1.02,0.47,0.,1.,         113P    237
0.45,-0.45,1.02,0.47,-0.47,1.,0.,-0.45,1.02,0.,-0.47,1.,-0.45,       113P    238
-0.45,1.02,-0.47,-0.47,1.,-0.45,0.,1.02,-0.47,0.,1.,-0.45,0.45,      113P    239
1.02,-0.47,0.47,1.,0.,0.45,1.02,0.,0.47,-0.0307437730950671,         113P    240
0.0307437730950675,-3.14159265358979,3.14159265358979;               113P    241
128,1,1,1,1,0,0,1,0,0,-2.23599875450904,-2.23599875450904,           115P    242
0.0520012454909606,0.0520012454909606,-1.144,-1.144,1.144,1.144,     115P    243
1.,1.,1.,1.,1.,-0.450393700787401,-0.450393700787401,1.,             115P    244
-0.450393700787401,0.450393700787402,1.,0.450393700787401,           115P    245
-0.450393700787401,1.,0.450393700787401,0.450393700787402,           115P    246
-2.23599875450904,0.0520012454909606,-1.144,1.144;                   115P    247
128,1,8,1,2,0,1,0,0,1,-0.0373344583602832,-0.0373344583602832,       117P    248
0.0373344583602833,0.0373344583602833,-3.14159265358979,             117P    249
-3.14159265358979,-3.14159265358979,-1.5707963267949,                117P    250
-1.5707963267949,0.,0.,1.5707963267949,1.5707963267949,              117P    251
3.14159265358979,3.14159265358979,3.14159265358979,1.,1.,            117P    252
0.707106781186548,0.707106781186548,1.,1.,0.707106781186548,         117P    253
0.707106781186548,1.,1.,0.707106781186548,0.707106781186548,1.,      117P    254
1.,0.707106781186548,0.707106781186548,1.,1.,                        117P    255
-2.37670775448791D-16,1.17894010477581D-17,0.375,                    117P    256
0.0199878165403823,-1.1789401047758D-17,0.39569798993405,            117P    257
2.16909527090829D-16,0.375,0.375,0.0199878165403828,                 117P    258
0.39569798993405,0.39569798993405,2.16909527090829D-16,0.375,        117P    259
-1.17894010477578D-17,0.0199878165403828,0.39569798993405,           117P    260
-1.2440112792331D-17,2.16909527090829D-16,0.375,-0.375,              117P    261
0.0199878165403828,0.39569798993405,-0.39569798993405,               117P    262
-2.37670775448791D-16,-1.17894010477575D-17,-0.375,                  117P    263
0.0199878165403823,-3.66696266324201D-17,-0.39569798993405,          117P    264
-6.9225107798841D-16,-0.375,-0.375,0.0199878165403818,               117P    265
-0.39569798993405,-0.39569798993405,-6.9225107798841D-16,-0.375,     117P    266
1.17894010477578D-17,0.0199878165403818,-0.39569798993405,           117P    267
1.2440112792331D-17,-6.9225107798841D-16,-0.375,0.375,               117P    268
0.0199878165403818,-0.39569798993405,0.39569798993405,               117P    269
-2.37670775448791D-16,1.17894010477581D-17,0.375,                    117P    270
0.0199878165403823,-1.1789401047758D-17,0.39569798993405,            117P    271
-0.0373344583602832,0.0373344583602833,-3.14159265358979,            117P    272
3.14159265358979;                                                    117P    273
128,1,1,1,1,0,0,1,0,0,-1.271,-1.271,0.636,0.636,-0.9535,-0.9535,     119P    274
0.9535,0.9535,1.,1.,1.,1.,0.,-0.375393700787402,                     119P    275
-0.375393700787402,0.,-0.375393700787402,0.375393700787402,0.,       119P    276
0.375393700787402,-0.375393700787402,0.,0.375393700787402,           119P    277
0.375393700787402,-1.271,0.636,-0.9535,0.9535;                       119P    278
128,1,8,1,2,0,1,0,0,1,-1.2129765442993,-1.2129765442993,             121P    279
1.16448703902882,1.16448703902882,-3.14159265358979,                 121P    280
-3.14159265358979,-3.14159265358979,-1.5707963267949,                121P    281
-1.5707963267949,0.,0.,1.5707963267949,1.5707963267949,              121P    282
3.14159265358979,3.14159265358979,3.14159265358979,1.,1.,            121P    283
0.707106781186548,0.707106781186548,1.,1.,0.707106781186548,         121P    284
0.707106781186548,1.,1.,0.707106781186548,0.707106781186548,1.,      121P    285
1.,0.707106781186548,0.707106781186548,1.,1.,0.0199878165403819,     121P    286
0.,-0.39569798993405,1.,0.,-0.429920769491748,                       121P    287
0.0199878165403819,-0.39569798993405,-0.39569798993405,1.,           121P    288
-0.429920769491748,-0.429920769491748,0.0199878165403819,            121P    289
-0.39569798993405,0.,1.,-0.429920769491748,0.,                       121P    290
0.0199878165403819,-0.39569798993405,0.39569798993405,1.,            121P    291
-0.429920769491748,0.429920769491748,0.0199878165403819,0.,          121P    292
0.39569798993405,1.,0.,0.429920769491748,0.0199878165403819,         121P    293
0.39569798993405,0.39569798993405,1.,0.429920769491748,              121P    294
0.429920769491748,0.0199878165403819,0.39569798993405,0.,1.,         121P    295
0.429920769491748,0.,0.0199878165403819,0.39569798993405,            121P    296
-0.39569798993405,1.,0.429920769491748,-0.429920769491748,           121P    297
0.0199878165403819,0.,-0.39569798993405,1.,0.,                       121P    298
-0.429920769491748,-1.2129765442993,1.16448703902882,                121P    299
-3.14159265358979,3.14159265358979;                                  121P    300
128,1,8,1,2,0,1,0,0,1,-0.104756560175785,-0.104756560175785,         123P    301
0.104756560175785,0.104756560175785,-3.14159265358979,               123P    302
-3.14159265358979,-3.14159265358979,-1.5707963267949,                123P    303
-1.5707963267949,0.,0.,1.5707963267949,1.5707963267949,              123P    304
3.14159265358979,3.14159265358979,3.14159265358979,1.,1.,            123P    305
0.707106781186548,0.707106781186548,1.,1.,0.707106781186548,         123P    306
0.707106781186548,1.,1.,0.707106781186548,0.707106781186548,1.,      123P    307
1.,0.707106781186548,0.707106781186548,1.,1.,-0.02,0.,0.125,         123P    308
6.82961998416066D-18,0.,0.145,-0.02,0.125,0.125,                     123P    309
6.82961998416066D-18,0.145,0.145,-0.02,0.125,0.,                     123P    310
6.82961998416066D-18,0.145,0.,-0.02,0.125,-0.125,                    123P    311
6.82961998416066D-18,0.145,-0.145,-0.02,0.,-0.125,                   123P    312
6.82961998416066D-18,0.,-0.145,-0.02,-0.125,-0.125,                  123P    313
6.82961998416066D-18,-0.145,-0.145,-0.02,-0.125,0.,                  123P    314
6.82961998416066D-18,-0.145,0.,-0.02,-0.125,0.125,                   123P    315
6.82961998416066D-18,-0.145,0.145,-0.02,0.,0.125,                    123P    316
6.82961998416066D-18,0.,0.145,-0.104756560175785,                    123P    317
0.104756560175785,-3.14159265358979,3.14159265358979;                123P    318
128,1,8,1,2,0,1,0,0,1,-1.34,-1.34,1.34,1.34,-3.14159265358979,       125P    319
-3.14159265358979,-3.14159265358979,-1.5707963267949,                125P    320
-1.5707963267949,0.,0.,1.5707963267949,1.5707963267949,              125P    321
3.14159265358979,3.14159265358979,3.14159265358979,1.,1.,            125P    322
0.707106781186548,0.707106781186548,1.,1.,0.707106781186548,         125P    323
0.707106781186548,1.,1.,0.707106781186548,0.707106781186548,1.,      125P    324
1.,0.707106781186548,0.707106781186548,1.,1.,-0.355,0.,-0.125,       125P    325
-0.02,0.,-0.125,-0.355,-0.125,-0.125,-0.02,-0.125,-0.125,-0.355,     125P    326
-0.125,0.,-0.02,-0.125,0.,-0.355,-0.125,0.125,-0.02,-0.125,          125P    327
0.125,-0.355,0.,0.125,-0.02,0.,0.125,-0.355,0.125,0.125,-0.02,       125P    328
0.125,0.125,-0.355,0.125,0.,-0.02,0.125,0.,-0.355,0.125,-0.125,      125P    329
-0.02,0.125,-0.125,-0.355,0.,-0.125,-0.02,0.,-0.125,-1.34,1.34,      125P    330
-3.14159265358979,3.14159265358979;                                  125P    331
128,1,8,1,2,0,1,0,0,1,-0.122975092380269,-0.122975092380269,         127P    332
0.122975092380269,0.122975092380269,-3.14159265358979,               127P    333
-3.14159265358979,-3.14159265358979,-1.5707963267949,                127P    334
-1.5707963267949,0.,0.,1.5707963267949,1.5707963267949,              127P    335
3.14159265358979,3.14159265358979,3.14159265358979,1.,1.,            127P    336
0.707106781186548,0.707106781186548,1.,1.,0.707106781186548,         127P    337
0.707106781186548,1.,1.,0.707106781186548,0.707106781186548,1.,      127P    338
1.,0.707106781186548,0.707106781186548,1.,1.,-0.375,0.,0.105,        127P    339
-0.355,0.,0.125,-0.375,0.105,0.105,-0.355,0.125,0.125,-0.375,        127P    340
0.105,0.,-0.355,0.125,0.,-0.375,0.105,-0.105,-0.355,0.125,           127P    341
-0.125,-0.375,0.,-0.105,-0.355,0.,-0.125,-0.375,-0.105,-0.105,       127P    342
-0.355,-0.125,-0.125,-0.375,-0.105,0.,-0.355,-0.125,0.,-0.375,       127P    343
-0.105,0.105,-0.355,-0.125,0.125,-0.375,0.,0.105,-0.355,0.,          127P    344
0.125,-0.122975092380269,0.122975092380269,-3.14159265358979,        127P    345
3.14159265358979;                                                    127P    346
128,1,1,1,1,0,0,1,0,0,-0.2677,-0.2677,0.2677,0.2677,-0.2677,         129P    347
-0.2677,0.2677,0.2677,1.,1.,1.,1.,-0.375,-0.105393700787402,         129P    348
-0.105393700787402,-0.375,-0.105393700787402,0.105393700787402,      129P    349
-0.375,0.105393700787402,-0.105393700787402,-0.375,                  129P    350
0.105393700787402,0.105393700787402,-0.2677,0.2677,-0.2677,          129P    351
0.2677;                                                              129P    352
502,17,1.48,-5.75583995599256D-17,0.47,1.48,0.,-0.47,1.5,            131P    353
5.51091059616309D-17,0.45,1.02,5.75583995599256D-17,0.47,1.02,       131P    354
0.,-0.47,1.,-5.51091059616309D-17,0.45,1.,0.,0.429920769491748,      131P    355
1.,0.,-0.429920769491748,0.,-4.59242549680257D-17,0.375,             131P    356
0.0199878165403821,4.84590276801776D-17,0.39569798993405,            131P    357
0.0199878165403819,0.,-0.39569798993405,0.,1.77573785876366D-17,     131P    358
0.145,-0.02,-1.53080849893419D-17,0.125,-0.02,0.,-0.125,-0.355,      131P    359
1.53080849893419D-17,0.125,-0.355,0.,-0.125,-0.375,                  131P    360
-1.28587913910472D-17,0.105;                                         131P    361
504,25,57,131,1,131,2,59,131,2,131,1,61,131,1,131,3,63,131,3,        133P    362
131,3,65,131,4,131,5,67,131,5,131,4,69,131,5,131,2,71,131,6,131,     133P    363
6,73,131,6,131,4,75,131,7,131,8,77,131,8,131,7,79,131,9,131,9,       133P    364
81,131,9,131,10,83,131,10,131,11,85,131,11,131,10,87,131,12,131,     133P    365
12,89,131,11,131,8,91,131,13,131,14,93,131,14,131,13,95,131,13,      133P    366
131,12,97,131,15,131,16,99,131,16,131,15,101,131,16,131,14,103,      133P    367
131,17,131,17,105,131,17,131,15;                                     133P    368
406,1,5HBody1;                                                       135P    369
314,62.7450980392157,62.7450980392157,62.7450980392157,13HSteel      137P    370
- Satin;                                                             137P    371
S      1G      3D    138P    371                                        T      1
